<mxfile host="65bd71144e">
    <diagram id="QsftRYa1sXSmCK1CmnUs" name="Page-1">
        <mxGraphModel dx="992" dy="358" grid="1" gridSize="10" guides="1" tooltips="1" connect="1" arrows="1" fold="1" page="1" pageScale="1" pageWidth="827" pageHeight="1169" math="0" shadow="0">
            <root>
                <mxCell id="0"/>
                <mxCell id="1" parent="0"/>
                <mxCell id="29" value="" style="rounded=0;whiteSpace=wrap;html=1;fontSize=13;strokeColor=#36393d;fillColor=#eeeeee;" parent="1" vertex="1">
                    <mxGeometry x="60" y="50" width="770" height="330" as="geometry"/>
                </mxCell>
                <mxCell id="5" style="edgeStyle=none;html=1;entryX=0;entryY=0.5;entryDx=0;entryDy=0;fontSize=14;exitX=0.995;exitY=0.841;exitDx=0;exitDy=0;exitPerimeter=0;sketch=1;strokeColor=#000000;" parent="1" source="2" target="9" edge="1">
                    <mxGeometry relative="1" as="geometry">
                        <mxPoint x="320" y="140" as="targetPoint"/>
                    </mxGeometry>
                </mxCell>
                <mxCell id="2" value="&lt;b style=&quot;font-size: 14px&quot;&gt;&lt;br&gt;start = 1, end = 3&lt;br&gt;size = 9, elements = 2&lt;br&gt;&lt;br&gt;arr&lt;/b&gt;" style="rounded=1;whiteSpace=wrap;html=1;fillColor=#ffe6cc;strokeColor=#000000;fontColor=#000000;" parent="1" vertex="1">
                    <mxGeometry x="90" y="80" width="120" height="110" as="geometry"/>
                </mxCell>
                <mxCell id="4" value="" style="endArrow=none;html=1;fontSize=14;entryX=1;entryY=0.75;entryDx=0;entryDy=0;exitX=0;exitY=0.75;exitDx=0;exitDy=0;strokeColor=#000000;" parent="1" source="2" target="2" edge="1">
                    <mxGeometry width="50" height="50" relative="1" as="geometry">
                        <mxPoint x="70" y="300" as="sourcePoint"/>
                        <mxPoint x="120" y="250" as="targetPoint"/>
                    </mxGeometry>
                </mxCell>
                <mxCell id="8" value="" style="shape=table;startSize=0;container=1;collapsible=0;childLayout=tableLayout;fontSize=14;fillColor=#ffcccc;strokeColor=#36393d;fontColor=#000000;verticalAlign=middle;" parent="1" vertex="1">
                    <mxGeometry x="280" y="120" width="540" height="40" as="geometry"/>
                </mxCell>
                <mxCell id="9" value="" style="shape=partialRectangle;collapsible=0;dropTarget=0;pointerEvents=0;fillColor=none;top=0;left=0;bottom=0;right=0;points=[[0,0.5],[1,0.5]];portConstraint=eastwest;fontSize=14;" parent="8" vertex="1">
                    <mxGeometry width="540" height="40" as="geometry"/>
                </mxCell>
                <mxCell id="10" value="0" style="shape=partialRectangle;html=1;whiteSpace=wrap;connectable=0;overflow=hidden;fillColor=none;top=0;left=0;bottom=0;right=0;pointerEvents=1;fontSize=14;" parent="9" vertex="1">
                    <mxGeometry width="60" height="40" as="geometry">
                        <mxRectangle width="60" height="40" as="alternateBounds"/>
                    </mxGeometry>
                </mxCell>
                <mxCell id="11" value="&lt;font color=&quot;#000000&quot;&gt;1&lt;/font&gt;" style="shape=partialRectangle;html=1;whiteSpace=wrap;connectable=0;overflow=hidden;fillColor=none;top=0;left=0;bottom=0;right=0;pointerEvents=1;fontSize=14;" parent="9" vertex="1">
                    <mxGeometry x="60" width="60" height="40" as="geometry">
                        <mxRectangle width="60" height="40" as="alternateBounds"/>
                    </mxGeometry>
                </mxCell>
                <mxCell id="12" value="&lt;font color=&quot;#000000&quot;&gt;2&lt;/font&gt;" style="shape=partialRectangle;html=1;whiteSpace=wrap;connectable=0;overflow=hidden;fillColor=none;top=0;left=0;bottom=0;right=0;pointerEvents=1;fontSize=14;" parent="9" vertex="1">
                    <mxGeometry x="120" width="60" height="40" as="geometry">
                        <mxRectangle width="60" height="40" as="alternateBounds"/>
                    </mxGeometry>
                </mxCell>
                <mxCell id="13" value="3" style="shape=partialRectangle;html=1;whiteSpace=wrap;connectable=0;overflow=hidden;fillColor=none;top=0;left=0;bottom=0;right=0;pointerEvents=1;fontSize=14;" parent="9" vertex="1">
                    <mxGeometry x="180" width="60" height="40" as="geometry">
                        <mxRectangle width="60" height="40" as="alternateBounds"/>
                    </mxGeometry>
                </mxCell>
                <mxCell id="14" value="4" style="shape=partialRectangle;html=1;whiteSpace=wrap;connectable=0;overflow=hidden;fillColor=none;top=0;left=0;bottom=0;right=0;pointerEvents=1;fontSize=14;" parent="9" vertex="1">
                    <mxGeometry x="240" width="60" height="40" as="geometry">
                        <mxRectangle width="60" height="40" as="alternateBounds"/>
                    </mxGeometry>
                </mxCell>
                <mxCell id="15" value="5" style="shape=partialRectangle;html=1;whiteSpace=wrap;connectable=0;overflow=hidden;fillColor=none;top=0;left=0;bottom=0;right=0;pointerEvents=1;fontSize=14;" parent="9" vertex="1">
                    <mxGeometry x="300" width="60" height="40" as="geometry">
                        <mxRectangle width="60" height="40" as="alternateBounds"/>
                    </mxGeometry>
                </mxCell>
                <mxCell id="16" value="6" style="shape=partialRectangle;html=1;whiteSpace=wrap;connectable=0;overflow=hidden;fillColor=none;top=0;left=0;bottom=0;right=0;pointerEvents=1;fontSize=14;" parent="9" vertex="1">
                    <mxGeometry x="360" width="60" height="40" as="geometry">
                        <mxRectangle width="60" height="40" as="alternateBounds"/>
                    </mxGeometry>
                </mxCell>
                <mxCell id="17" value="7" style="shape=partialRectangle;html=1;whiteSpace=wrap;connectable=0;overflow=hidden;fillColor=none;top=0;left=0;bottom=0;right=0;pointerEvents=1;fontSize=14;" parent="9" vertex="1">
                    <mxGeometry x="420" width="60" height="40" as="geometry">
                        <mxRectangle width="60" height="40" as="alternateBounds"/>
                    </mxGeometry>
                </mxCell>
                <mxCell id="18" value="8" style="shape=partialRectangle;html=1;whiteSpace=wrap;connectable=0;overflow=hidden;fillColor=none;top=0;left=0;bottom=0;right=0;pointerEvents=1;fontSize=14;" parent="9" vertex="1">
                    <mxGeometry x="480" width="60" height="40" as="geometry">
                        <mxRectangle width="60" height="40" as="alternateBounds"/>
                    </mxGeometry>
                </mxCell>
                <mxCell id="20" style="edgeStyle=none;html=1;entryX=0.385;entryY=1.038;entryDx=0;entryDy=0;entryPerimeter=0;fontSize=14;sketch=1;strokeColor=#000000;" parent="1" source="19" target="9" edge="1">
                    <mxGeometry relative="1" as="geometry"/>
                </mxCell>
                <mxCell id="19" value="&lt;b&gt;end&lt;/b&gt;" style="rounded=0;whiteSpace=wrap;html=1;fontSize=14;" parent="1" vertex="1">
                    <mxGeometry x="460" y="190" width="60" height="30" as="geometry"/>
                </mxCell>
                <mxCell id="21" value="&lt;b&gt;&lt;font style=&quot;font-size: 13px&quot;&gt;Item P&lt;/font&gt;&lt;/b&gt;" style="rounded=0;whiteSpace=wrap;html=1;fontSize=14;fillColor=#d5e8d4;strokeColor=#82b366;fontColor=#000000;" parent="1" vertex="1">
                    <mxGeometry x="80" y="320" width="80" height="40" as="geometry"/>
                </mxCell>
                <mxCell id="22" value="&lt;b&gt;&lt;font style=&quot;font-size: 13px&quot;&gt;Item Z&lt;/font&gt;&lt;/b&gt;" style="rounded=0;whiteSpace=wrap;html=1;fontSize=14;fillColor=#d5e8d4;strokeColor=#82b366;fontColor=#000000;" parent="1" vertex="1">
                    <mxGeometry x="380" y="320" width="80" height="40" as="geometry"/>
                </mxCell>
                <mxCell id="26" style="edgeStyle=none;sketch=1;html=1;entryX=1;entryY=0.5;entryDx=0;entryDy=0;fontSize=13;exitX=0.167;exitY=1;exitDx=0;exitDy=0;exitPerimeter=0;strokeColor=#000000;" parent="1" source="9" target="21" edge="1">
                    <mxGeometry relative="1" as="geometry"/>
                </mxCell>
                <mxCell id="27" style="edgeStyle=none;sketch=1;html=1;entryX=0.5;entryY=0;entryDx=0;entryDy=0;fontSize=13;exitX=0.278;exitY=1;exitDx=0;exitDy=0;exitPerimeter=0;strokeColor=#000000;" parent="1" source="9" target="22" edge="1">
                    <mxGeometry relative="1" as="geometry"/>
                </mxCell>
                <mxCell id="31" style="edgeStyle=none;html=1;fontColor=#f0f0f0;entryX=0.176;entryY=1.067;entryDx=0;entryDy=0;entryPerimeter=0;strokeColor=#000000;exitX=0.5;exitY=0;exitDx=0;exitDy=0;sketch=1;" edge="1" parent="1" source="30" target="9">
                    <mxGeometry relative="1" as="geometry">
                        <mxPoint x="370" y="200" as="sourcePoint"/>
                    </mxGeometry>
                </mxCell>
                <mxCell id="30" value="&lt;b&gt;start&lt;/b&gt;" style="rounded=0;whiteSpace=wrap;html=1;fontSize=14;" vertex="1" parent="1">
                    <mxGeometry x="340" y="190" width="60" height="30" as="geometry"/>
                </mxCell>
            </root>
        </mxGraphModel>
    </diagram>
</mxfile>